{
  "asset": {
    "copyright": "(C)2022 TwoNull",
    "generator": "maya2glTF main fbbc95e5dc4d",
    "version": "2.0"
  },
  "buffers": [
    {
      "uri": "data:application/octet-stream;base64,",
      "byteLength": 97328
    }
  ],
  "bufferViews": [
    {
      "buffer": 0,
      "byteOffset": 0,
      "byteLength": 37632,
      "target": 34962,
      "byteStride": 16
    },
    {
      "buffer": 0,
      "byteOffset": 37632,
      "byteLength": 44832,
      "target": 34962,
      "byteStride": 12
    },
    {
      "buffer": 0,
      "byteOffset": 82464,
      "byteLength": 3872,
      "target": 34962,
      "byteStride": 8
    },
    {
      "buffer": 0,
      "byteOffset": 86336,
      "byteLength": 10992,
      "target": 34963
    }
  ],
  "accessors": [
    {
      "bufferView": 0,
      "byteOffset": 0,
      "componentType": 5126,
      "normalized": false,
      "count": 484,
      "max": [0.8980404734611511, 0.8980404734611511, 0.8980404734611511, 1],
      "min": [0.8980404734611511, 0.8980404734611511, 0.8980404734611511, 1],
      "type": "VEC4"
    },
    {
      "bufferView": 0,
      "byteOffset": 7744,
      "componentType": 5126,
      "normalized": false,
      "count": 484,
      "max": [1, 1, 1, 1],
      "min": [0, -0.4997805953025818, -1, 1],
      "type": "VEC4"
    },
    {
      "bufferView": 1,
      "byteOffset": 0,
      "componentType": 5126,
      "normalized": false,
      "count": 484,
      "max": [1, 1, 0],
      "min": [-0.050264954566955566, -1, -1],
      "type": "VEC3"
    },
    {
      "bufferView": 1,
      "byteOffset": 5808,
      "componentType": 5126,
      "normalized": false,
      "count": 484,
      "max": [6.854398250579834, 7.559953689575195, 2],
      "min": [3.041898250579834, 2.4402778148651123, 0],
      "type": "VEC3"
    },
    {
      "bufferView": 2,
      "byteOffset": 0,
      "componentType": 5126,
      "normalized": false,
      "count": 484,
      "max": [0.927227258682251, 0.9980079531669617],
      "min": [0.0018507529748603702, 0.001991986995562911],
      "type": "VEC2"
    },
    {
      "bufferView": 3,
      "byteOffset": 0,
      "componentType": 5123,
      "normalized": false,
      "count": 1410,
      "max": [483],
      "min": [0],
      "type": "SCALAR"
    },
    {
      "bufferView": 0,
      "byteOffset": 15488,
      "componentType": 5126,
      "normalized": false,
      "count": 1384,
      "max": [0.8980404734611511, 0.8980404734611511, 0.8980404734611511, 1],
      "min": [0.8980403542518616, 0.8980403542518616, 0.8980403542518616, 1],
      "type": "VEC4"
    },
    {
      "bufferView": 1,
      "byteOffset": 11616,
      "componentType": 5126,
      "normalized": false,
      "count": 1384,
      "max": [1, 1, 1],
      "min": [-1, -1, -1],
      "type": "VEC3"
    },
    {
      "bufferView": 1,
      "byteOffset": 28224,
      "componentType": 5126,
      "normalized": false,
      "count": 1384,
      "max": [8.873842239379883, 9.976851463317871, 2.000999927520752],
      "min": [0.023148147389292717, 0.023148147389292717, 0],
      "type": "VEC3"
    },
    {
      "bufferView": 3,
      "byteOffset": 2820,
      "componentType": 5123,
      "normalized": false,
      "count": 4086,
      "max": [1383],
      "min": [0],
      "type": "SCALAR"
    }
  ],
  "scene": 0,
  "scenes": [
    {
      "nodes": [1],
      "name": "dark2-logo"
    }
  ],
  "nodes": [
    {
      "name": "svgMesh1:PIV",
      "matrix": [
        1, 0, 0, 0, 0, 1, 0, 0, 0, 0, 0.5, 0, -4.436921119689941,
        -4.9884257316589355, -0.5005000233650208, 1
      ],
      "mesh": 0
    },
    {
      "name": "svgMesh1",
      "children": [0]
    }
  ],
  "meshes": [
    {
      "primitives": [
        {
          "attributes": {
            "COLOR_0": 0,
            "TANGENT": 1,
            "NORMAL": 2,
            "POSITION": 3,
            "TEXCOORD_0": 4
          },
          "material": 0,
          "mode": 4,
          "indices": 5
        },
        {
          "attributes": {
            "COLOR_0": 6,
            "NORMAL": 7,
            "POSITION": 8
          },
          "material": 0,
          "mode": 4,
          "indices": 9
        }
      ]
    }
  ],
  "materials": [
    {
      "pbrMetallicRoughness": {
        "baseColorFactor": [0.8, 0.8, 0.8, 1],
        "metallicFactor": 0,
        "roughnessFactor": 1
      },
      "emissiveFactor": [0, 0, 0],
      "alphaMode": "OPAQUE",
      "doubleSided": false
    }
  ]
}
