<?xml version="1.0" encoding="utf-8"?>
<!-- Generator: Adobe Illustrator 26.0.2, SVG Export Plug-In . SVG Version: 6.00 Build 0)  -->
<svg version="1.1" id="Layer_1" xmlns="http://www.w3.org/2000/svg" xmlns:xlink="http://www.w3.org/1999/xlink" x="0px" y="0px"
	 viewBox="0 0 122.8 122.4" style="enable-background:new 0 0 122.8 122.4;" xml:space="preserve">
<style type="text/css">
	.st0{fill:none;stroke:#171717;stroke-width:8;stroke-miterlimit:10;}
</style>
<g>
	<path class="st0" d="M114.9,25.1c3.3-0.5,4.6,1.4,3,4.3L103.2,56c-1.6,2.9-1.6,7.6,0,10.5l14.7,26.6c1.6,2.9,0.2,4.8-3,4.3
		l-31.6-5.2c-3.3-0.5-7.9,0.9-10.2,3.2L51,117.1c-2.4,2.3-4.7,1.5-5.2-1.7l-4.5-29.6c-0.5-3.3-3.4-7.1-6.3-8.5L6.3,63.8
		c-3-1.4-3-3.7,0-5.1l28.6-13.4c3-1.4,5.8-5.2,6.3-8.5l4.5-29.6c0.5-3.3,2.8-4,5.2-1.7l22.2,21.6c2.4,2.3,7,3.8,10.2,3.2L114.9,25.1
		z"/>
</g>
</svg>
